<?xml version="1.0" encoding="UTF-8"?><svg id="a" xmlns="http://www.w3.org/2000/svg" viewBox="0 0 48.33 51.45"><defs><style>.b{fill:#e8f1f1;}.c{font-family:MyriadPro-Regular, Myriad Pro;font-size:6px;}</style></defs><circle class="b" cx="24.17" cy="24.17" r="24.17"/><text class="c" transform="translate(11.78 15.2) rotate(-33.08)"><tspan x="0" y="0">A</tspan></text><text class="c" transform="translate(14.69 13.3) rotate(-23.64)"><tspan x="0" y="0">d</tspan></text><text class="c" transform="translate(17.65 12.01) rotate(-15.25)"><tspan x="0" y="0">a</tspan></text><text class="c" transform="translate(20.31 11.26) rotate(-6.82)"><tspan x="0" y="0">p</tspan></text><text class="c" transform="translate(23.58 10.9) rotate(.47)"><tspan x="0" y="0">t</tspan></text><text class="c" transform="translate(25.44 10.88) rotate(7.05)"><tspan x="0" y="0">a</tspan></text><text class="c" transform="translate(28.19 11.19) rotate(15.63)"><tspan x="0" y="0">b</tspan></text><text class="c" transform="translate(31.35 12.13) rotate(22.11)"><tspan x="0" y="0">i</tspan></text><text class="c" transform="translate(32.59 12.63) rotate(25.88)"><tspan x="0" y="0">l</tspan></text><text class="c" transform="translate(33.8 13.22) rotate(29.64)"><tspan x="0" y="0">i</tspan></text><text class="c" transform="translate(34.95 13.86) rotate(34.17)"><tspan x="0" y="0">t</tspan></text><text class="c" transform="translate(36.49 14.86) rotate(40.76)"><tspan x="0" y="0">é</tspan></text></svg>