<svg viewBox="0 0 200 200" xmlns="http://www.w3.org/2000/svg">
  <path fill="#fde8c1" d="M45.4,-79.3C59,-70.7,70.4,-59,78.7,-45.2C87,-31.5,92.3,-15.7,88.1,-2.4C83.9,10.9,70.2,21.8,61.8,35.3C53.4,48.9,50.2,65.2,40.8,70.5C31.4,75.9,15.7,70.3,0.4,69.7C-15,69.1,-29.9,73.4,-40.5,68.7C-51,64,-57.2,50.3,-60.3,37.3C-63.5,24.4,-63.7,12.2,-66.3,-1.5C-68.9,-15.2,-73.9,-30.4,-70.4,-42.8C-66.9,-55.2,-54.9,-64.8,-41.8,-73.6C-28.6,-82.4,-14.3,-90.5,0.8,-91.9C15.9,-93.2,31.7,-87.8,45.4,-79.3Z" transform="translate(100 100)" />
</svg>