<svg id="wave" style="transform:rotate(180deg); transition: 0.3s" viewBox="0 0 1440 100" version="1.1" xmlns="http://www.w3.org/2000/svg"><defs><linearGradient id="sw-gradient-0" x1="0" x2="0" y1="1" y2="0"><stop stop-color="#f1d9bd" offset="0%"></stop><stop stop-color="#f1d9bd" offset="100%"></stop></linearGradient></defs><path style="transform:translate(0, 0px); opacity:1" fill="url(#sw-gradient-0)" d="M0,40L80,35C160,30,320,20,480,23.3C640,27,800,43,960,50C1120,57,1280,53,1440,53.3C1600,53,1760,57,1920,56.7C2080,57,2240,53,2400,45C2560,37,2720,23,2880,16.7C3040,10,3200,10,3360,8.3C3520,7,3680,3,3840,3.3C4000,3,4160,7,4320,11.7C4480,17,4640,23,4800,26.7C4960,30,5120,30,5280,31.7C5440,33,5600,37,5760,45C5920,53,6080,67,6240,73.3C6400,80,6560,80,6720,80C6880,80,7040,80,7200,76.7C7360,73,7520,67,7680,68.3C7840,70,8000,80,8160,73.3C8320,67,8480,43,8640,38.3C8800,33,8960,47,9120,48.3C9280,50,9440,40,9600,41.7C9760,43,9920,57,10080,55C10240,53,10400,37,10560,30C10720,23,10880,27,11040,31.7C11200,37,11360,43,11440,46.7L11520,50L11520,100L11440,100C11360,100,11200,100,11040,100C10880,100,10720,100,10560,100C10400,100,10240,100,10080,100C9920,100,9760,100,9600,100C9440,100,9280,100,9120,100C8960,100,8800,100,8640,100C8480,100,8320,100,8160,100C8000,100,7840,100,7680,100C7520,100,7360,100,7200,100C7040,100,6880,100,6720,100C6560,100,6400,100,6240,100C6080,100,5920,100,5760,100C5600,100,5440,100,5280,100C5120,100,4960,100,4800,100C4640,100,4480,100,4320,100C4160,100,4000,100,3840,100C3680,100,3520,100,3360,100C3200,100,3040,100,2880,100C2720,100,2560,100,2400,100C2240,100,2080,100,1920,100C1760,100,1600,100,1440,100C1280,100,1120,100,960,100C800,100,640,100,480,100C320,100,160,100,80,100L0,100Z"></path></svg>