<?xml version="1.0" encoding="UTF-8"?><svg id="a" xmlns="http://www.w3.org/2000/svg" viewBox="0 0 167 180.75"><defs><style>.b{fill:#f4f3ee;}.c{fill:#f1d9bd;}.d{font-family:MVBoli, MV Boli;font-size:8.55px;}.e{fill:none;}</style></defs><g><g><rect class="c" x="27.27" y="-19.59" width="14.1" height="53.91" transform="translate(26.55 41.6) rotate(-89.32)"/><ellipse class="c" cx="61.27" cy="7.68" rx="7.05" ry="7.37" transform="translate(52.87 68.86) rotate(-89.32)"/><ellipse class="c" cx="7.37" cy="7.05" rx="7.05" ry="7.37" transform="translate(.24 14.34) rotate(-89.32)"/></g><g><g><polygon class="e" points="7.74 14.1 7.86 3.35 58.21 3.99 58.09 14.73 7.74 14.1"/><ellipse class="e" cx="7.8" cy="8.72" rx="5.37" ry="6.89" transform="translate(-1.04 16.39) rotate(-89.13)"/></g><text class="d" transform="translate(21.56 11.7) scale(.93 1)"><tspan x="0" y="0">HTMH</tspan></text></g></g><g><g><rect class="b" x="27.27" y="46.82" width="14.1" height="53.91" transform="translate(-39.85 107.22) rotate(-89.32)"/><ellipse class="b" cx="61.27" cy="74.09" rx="7.05" ry="7.37" transform="translate(-13.53 134.49) rotate(-89.32)"/><ellipse class="b" cx="7.37" cy="73.45" rx="7.05" ry="7.37" transform="translate(-66.16 79.96) rotate(-89.32)"/></g><g><rect class="c" x="5.75" y="67.96" width="14.1" height="11.63" transform="translate(-61.12 85.7) rotate(-89.32)"/><ellipse class="c" cx="6.98" cy="73.77" rx="7.05" ry="6.98" transform="translate(-66.87 79.89) rotate(-89.33)"/><ellipse class="c" cx="17.25" cy="73.77" rx="7.05" ry="6.98" transform="translate(-56.72 90.15) rotate(-89.33)"/></g><g><g><polygon class="e" points="7.74 78.83 7.86 68.08 58.21 68.72 58.09 79.46 7.74 78.83"/><ellipse class="e" cx="7.8" cy="73.45" rx="5.37" ry="6.89" transform="translate(-65.77 80.14) rotate(-89.13)"/></g><text class="d" transform="translate(.7 76.43) scale(.93 1)"><tspan x="0" y="0">JS/JQuery/Fetch</tspan></text></g></g><g><g><rect class="b" x="27.27" y="13.73" width="14.1" height="53.91" transform="translate(-6.76 74.53) rotate(-89.32)"/><ellipse class="b" cx="61.27" cy="41" rx="7.05" ry="7.37" transform="translate(19.55 101.79) rotate(-89.32)"/><ellipse class="b" cx="7.37" cy="40.37" rx="7.05" ry="7.37" transform="translate(-33.08 47.26) rotate(-89.32)"/></g><g><rect class="c" x="21.56" y="17.51" width="14.1" height="45.8" transform="translate(-12.13 68.54) rotate(-89.32)"/><ellipse class="c" cx="6.98" cy="40.14" rx="7.05" ry="6.98" transform="translate(-33.23 46.65) rotate(-89.33)"/><ellipse class="c" cx="50.84" cy="40.67" rx="7.05" ry="6.98" transform="translate(9.57 91.03) rotate(-89.33)"/></g><g><g><polygon class="e" points="6.83 47.12 6.94 36.37 57.29 37.01 57.17 47.75 6.83 47.12"/><ellipse class="e" cx="6.89" cy="41.74" rx="5.37" ry="6.89" transform="translate(-34.96 48) rotate(-89.13)"/></g><text class="d" transform="translate(24.56 44.72) scale(.93 1)"><tspan x="0" y="0">PHP</tspan></text></g></g><g><g><rect class="b" x="27.27" y="80.14" width="14.1" height="53.91" transform="translate(-73.16 140.15) rotate(-89.32)"/><ellipse class="b" cx="61.27" cy="107.41" rx="7.05" ry="7.37" transform="translate(-46.85 167.41) rotate(-89.32)"/><ellipse class="b" cx="7.37" cy="106.77" rx="7.05" ry="7.37" transform="translate(-99.48 112.89) rotate(-89.32)"/></g><g><rect class="c" x="20.03" y="85.43" width="14.1" height="42.72" transform="translate(-80.03 132.61) rotate(-89.32)"/><ellipse class="c" cx="6.98" cy="106.54" rx="7.05" ry="6.98" transform="translate(-99.63 112.27) rotate(-89.33)"/><ellipse class="c" cx="47.78" cy="107.08" rx="7.05" ry="6.98" transform="translate(-59.85 153.6) rotate(-89.33)"/></g><g><g><polygon class="e" points="6.83 113.52 6.94 102.78 57.29 103.41 57.17 114.16 6.83 113.52"/><ellipse class="e" cx="6.89" cy="108.15" rx="5.37" ry="6.89" transform="translate(-101.36 113.4) rotate(-89.13)"/></g><text class="d" transform="translate(18.13 111.12) scale(.93 1)"><tspan x="0" y="0">GITHUB</tspan></text></g></g><g><g><rect class="b" x="27.27" y="113.34" width="14.1" height="53.91" transform="translate(-106.36 172.96) rotate(-89.32)"/><ellipse class="b" cx="61.27" cy="140.61" rx="7.05" ry="7.37" transform="translate(-80.05 200.22) rotate(-89.32)"/><ellipse class="b" cx="7.37" cy="139.98" rx="7.05" ry="7.37" transform="translate(-132.68 145.7) rotate(-89.32)"/></g><g><rect class="c" x="18.5" y="120.14" width="14.1" height="39.67" transform="translate(-114.72 163.88) rotate(-89.32)"/><ellipse class="c" cx="6.98" cy="139.74" rx="7.05" ry="6.98" transform="translate(-132.83 145.08) rotate(-89.33)"/><ellipse class="c" cx="44.73" cy="140.21" rx="7.05" ry="6.98" transform="translate(-96 183.29) rotate(-89.33)"/></g><g><g><polygon class="e" points="6.83 146.72 6.94 135.98 57.29 136.62 57.17 147.36 6.83 146.72"/><ellipse class="e" cx="6.89" cy="141.35" rx="5.37" ry="6.89" transform="translate(-134.56 146.1) rotate(-89.13)"/></g><text class="d" transform="translate(13.74 144.33) scale(.93 1)"><tspan x="0" y="0">INDESIGN</tspan></text></g></g><g><g><rect class="b" x="27.27" y="146.43" width="14.1" height="53.91" transform="translate(-139.45 205.66) rotate(-89.32)"/><ellipse class="b" cx="61.27" cy="173.7" rx="7.05" ry="7.37" transform="translate(-113.13 232.92) rotate(-89.32)"/><ellipse class="b" cx="7.37" cy="173.06" rx="7.05" ry="7.37" transform="translate(-165.77 178.4) rotate(-89.32)"/></g><g><rect class="c" x="8.46" y="164.88" width="14.1" height="17.06" transform="translate(-158.07 186.88) rotate(-89.32)"/><ellipse class="c" cx="6.98" cy="173.31" rx="7.05" ry="6.98" transform="translate(-166.4 178.25) rotate(-89.33)"/><ellipse class="c" cx="23.36" cy="173.51" rx="7.05" ry="6.98" transform="translate(-150.42 194.83) rotate(-89.33)"/></g><g><g><polygon class="e" points="7.74 178.44 7.86 167.69 58.21 168.33 58.09 179.07 7.74 178.44"/><ellipse class="e" cx="7.8" cy="173.06" rx="5.37" ry="6.89" transform="translate(-165.36 178.25) rotate(-89.13)"/></g><text class="d" transform="translate(9.03 176.04) scale(.93 1)"><tspan x="0" y="0">PHOTOSHOP</tspan></text></g></g><g><g><rect class="b" x="125.63" y="-19.59" width="14.1" height="53.91" transform="translate(123.75 139.95) rotate(-89.32)"/><ellipse class="b" cx="159.63" cy="7.68" rx="7.05" ry="7.37" transform="translate(150.06 167.21) rotate(-89.32)"/><ellipse class="b" cx="105.73" cy="7.05" rx="7.05" ry="7.37" transform="translate(97.43 112.68) rotate(-89.32)"/></g><g><rect class="c" x="124.71" y="-19.06" width="14.1" height="52.85" transform="translate(122.85 139.02) rotate(-89.32)"/><ellipse class="c" cx="105.34" cy="7.05" rx="7.05" ry="6.98" transform="translate(97.05 112.3) rotate(-89.33)"/><ellipse class="c" cx="158.35" cy="7.67" rx="7.05" ry="6.98" transform="translate(148.82 165.92) rotate(-89.33)"/></g><g><g><polygon class="e" points="105.18 13.8 105.3 3.05 155.65 3.69 155.53 14.43 105.18 13.8"/><ellipse class="e" cx="105.24" cy="8.43" rx="5.37" ry="6.89" transform="translate(95.22 113.53) rotate(-89.13)"/></g><text class="d" transform="translate(123.81 11.4) scale(.93 1)"><tspan x="0" y="0">CSS</tspan></text></g></g><g><g><polygon class="e" points="109.71 45.62 109.83 34.88 160.17 35.51 160.06 46.25 109.71 45.62"/><ellipse class="e" cx="109.77" cy="40.25" rx="5.37" ry="6.89" transform="translate(67.87 149.39) rotate(-89.13)"/></g><g><g><rect class="b" x="125.63" y="13.73" width="14.1" height="53.91" transform="translate(90.43 172.87) rotate(-89.32)"/><ellipse class="b" cx="159.63" cy="41" rx="7.05" ry="7.37" transform="translate(116.75 200.14) rotate(-89.32)"/><ellipse class="b" cx="105.73" cy="40.37" rx="7.05" ry="7.37" transform="translate(64.12 145.61) rotate(-89.32)"/></g><g><rect class="c" x="119.92" y="17.51" width="14.1" height="45.8" transform="translate(85.07 166.89) rotate(-89.32)"/><ellipse class="c" cx="105.34" cy="40.14" rx="7.05" ry="6.98" transform="translate(63.96 144.99) rotate(-89.33)"/><ellipse class="c" cx="149.19" cy="40.67" rx="7.05" ry="6.98" transform="translate(106.76 189.38) rotate(-89.33)"/></g><g><g><polygon class="e" points="105.18 47.12 105.3 36.37 155.65 37.01 155.53 47.75 105.18 47.12"/><ellipse class="e" cx="105.24" cy="41.74" rx="5.37" ry="6.89" transform="translate(61.91 146.34) rotate(-89.13)"/></g><text class="d" transform="translate(123.45 44.72) scale(.93 1)"><tspan x="0" y="0">SQL</tspan></text></g></g></g><g><g><rect class="b" x="125.63" y="46.93" width="14.1" height="53.91" transform="translate(57.23 205.68) rotate(-89.32)"/><ellipse class="b" cx="159.63" cy="74.2" rx="7.05" ry="7.37" transform="translate(83.55 232.95) rotate(-89.32)"/><ellipse class="b" cx="105.73" cy="73.57" rx="7.05" ry="7.37" transform="translate(30.92 178.42) rotate(-89.32)"/></g><g><rect class="c" x="118.38" y="52.23" width="14.1" height="42.72" transform="translate(50.37 198.15) rotate(-89.32)"/><ellipse class="c" cx="105.34" cy="73.34" rx="7.05" ry="6.98" transform="translate(30.76 177.81) rotate(-89.33)"/><ellipse class="c" cx="146.14" cy="73.88" rx="7.05" ry="6.98" transform="translate(70.54 219.13) rotate(-89.33)"/></g><g><g><polygon class="e" points="105.18 80.32 105.3 69.58 155.65 70.21 155.53 80.95 105.18 80.32"/><ellipse class="e" cx="105.24" cy="74.95" rx="5.37" ry="6.89" transform="translate(28.71 179.04) rotate(-89.13)"/></g><text class="d" transform="translate(106.28 77.92) scale(.93 1)"><tspan x="0" y="0">WORDPRESS</tspan></text></g></g><g><g><rect class="b" x="125.63" y="80.02" width="14.1" height="53.91" transform="translate(24.15 238.38) rotate(-89.32)"/><ellipse class="b" cx="159.63" cy="107.29" rx="7.05" ry="7.37" transform="translate(50.46 265.65) rotate(-89.32)"/><ellipse class="b" cx="105.73" cy="106.66" rx="7.05" ry="7.37" transform="translate(-2.17 211.12) rotate(-89.32)"/></g><g><rect class="c" x="104.11" y="101.16" width="14.1" height="11.63" transform="translate(2.88 216.86) rotate(-89.32)"/><ellipse class="c" cx="105.34" cy="106.97" rx="7.05" ry="6.98" transform="translate(-2.87 211.05) rotate(-89.33)"/><ellipse class="c" cx="115.61" cy="106.97" rx="7.05" ry="6.98" transform="translate(7.28 221.31) rotate(-89.33)"/></g><g><g><polygon class="e" points="106.09 112.03 106.21 101.29 156.56 101.92 156.44 112.66 106.09 112.03"/><ellipse class="e" cx="106.15" cy="106.66" rx="5.37" ry="6.89" transform="translate(-2.1 211.19) rotate(-89.13)"/></g><text class="d" transform="translate(108.16 109.63) scale(.93 1)"><tspan x="0" y="0">BOOTSTRAP</tspan></text></g></g><g><g><rect class="b" x="125.63" y="113.34" width="14.1" height="53.91" transform="translate(-9.17 271.31) rotate(-89.32)"/><ellipse class="b" cx="159.63" cy="140.61" rx="7.05" ry="7.37" transform="translate(17.15 298.57) rotate(-89.32)"/><ellipse class="b" cx="105.73" cy="139.98" rx="7.05" ry="7.37" transform="translate(-35.49 244.04) rotate(-89.32)"/></g><g><rect class="c" x="119.92" y="117.12" width="14.1" height="45.8" transform="translate(-14.53 265.32) rotate(-89.32)"/><ellipse class="c" cx="105.34" cy="139.74" rx="7.05" ry="6.98" transform="translate(-35.64 243.43) rotate(-89.33)"/><ellipse class="c" cx="149.19" cy="140.28" rx="7.05" ry="6.98" transform="translate(7.16 287.81) rotate(-89.33)"/></g><g><g><polygon class="e" points="105.18 146.72 105.3 135.98 155.65 136.62 155.53 147.36 105.18 146.72"/><ellipse class="e" cx="105.24" cy="141.35" rx="5.37" ry="6.89" transform="translate(-37.69 244.44) rotate(-89.13)"/></g><text class="d" transform="translate(103.55 144.33) scale(.93 1)"><tspan x="0" y="0">ILLUSTRATOR</tspan></text></g></g><g><g><rect class="b" x="125.63" y="146.43" width="14.1" height="53.91" transform="translate(-42.25 304.01) rotate(-89.32)"/><ellipse class="b" cx="159.63" cy="173.7" rx="7.05" ry="7.37" transform="translate(-15.94 331.27) rotate(-89.32)"/><ellipse class="b" cx="105.73" cy="173.06" rx="7.05" ry="7.37" transform="translate(-68.57 276.74) rotate(-89.32)"/></g><g><rect class="c" x="106.82" y="164.88" width="14.1" height="17.06" transform="translate(-60.88 285.23) rotate(-89.32)"/><ellipse class="c" cx="105.34" cy="173.31" rx="7.05" ry="6.98" transform="translate(-69.2 276.6) rotate(-89.33)"/><ellipse class="c" cx="121.71" cy="173.51" rx="7.05" ry="6.98" transform="translate(-53.22 293.17) rotate(-89.33)"/></g><g><g><polygon class="e" points="106.09 178.44 106.21 167.69 156.56 168.33 156.44 179.07 106.09 178.44"/><ellipse class="e" cx="106.15" cy="173.06" rx="5.37" ry="6.89" transform="translate(-68.5 276.59) rotate(-89.13)"/></g><text class="d" transform="translate(118.34 176.03) scale(.93 1)"><tspan x="0" y="0">CANVA</tspan></text></g></g></svg>