<?xml version="1.0" encoding="UTF-8"?><svg id="a" xmlns="http://www.w3.org/2000/svg" viewBox="0 0 48.33 53"><defs><style>.b{fill:#e8f1f1;}.c{font-family:MyriadPro-Regular, Myriad Pro;font-size:6px;}</style></defs><circle class="b" cx="24.17" cy="25.71" r="24.17"/><text class="c" transform="translate(9.27 19.14) rotate(-43.91)"><tspan x="0" y="0">E</tspan></text><text class="c" transform="translate(11.32 17.17) rotate(-36.63)"><tspan x="0" y="0">s</tspan></text><text class="c" transform="translate(13.1 15.8) rotate(-28.81)"><tspan x="0" y="0">p</tspan></text><text class="c" transform="translate(16 14.25) rotate(-21.64)"><tspan x="0" y="0">r</tspan></text><text class="c" transform="translate(17.77 13.55) rotate(-17.11)"><tspan x="0" y="0">i</tspan></text><text class="c" transform="translate(19.05 13.15) rotate(-12.51)"><tspan x="0" y="0">t</tspan></text><text class="c" transform="translate(20.9 12.74) rotate(-8.12)"><tspan x="0" y="0"> </tspan></text><text class="c" transform="translate(22.04 12.52) rotate(-1.82)"><tspan x="0" y="0">d</tspan></text><text class="c" transform="translate(25.36 12.47) rotate(4.57)"><tspan x="0" y="0">’</tspan></text><text class="c" transform="translate(26.05 12.47) rotate(8.99)"><tspan x="0" y="0">é</tspan></text><text class="c" transform="translate(28.88 12.89) rotate(17.57)"><tspan x="0" y="0">q</tspan></text><text class="c" transform="translate(31.97 13.86) rotate(26.54)"><tspan x="0" y="0">u</tspan></text><text class="c" transform="translate(34.82 15.33) rotate(32.88)"><tspan x="0" y="0">i</tspan></text><text class="c" transform="translate(35.94 15.98) rotate(39.37)"><tspan x="0" y="0">p</tspan></text><text class="c" transform="translate(38.46 18.05) rotate(48.04)"><tspan x="0" y="0">e</tspan></text></svg>