<svg id="wave" style="transform:rotate(180deg); transition: 0.3s" viewBox="0 0 1440 150" version="1.1" xmlns="http://www.w3.org/2000/svg"><defs><linearGradient id="sw-gradient-0" x1="0" x2="0" y1="1" y2="0"><stop stop-color="rgb(252, 246, 239)" offset="0%"></stop><stop stop-color="rgba(252, 246, 239, 30%)" offset="100%"></stop></linearGradient></defs><path style="transform:translate(0, 0px); opacity:1" fill="url(#sw-gradient-0)" d="M0,120L48,117.5C96,115,192,110,288,97.5C384,85,480,65,576,60C672,55,768,65,864,70C960,75,1056,75,1152,67.5C1248,60,1344,45,1440,32.5C1536,20,1632,10,1728,25C1824,40,1920,80,2016,87.5C2112,95,2208,70,2304,50C2400,30,2496,15,2592,25C2688,35,2784,70,2880,87.5C2976,105,3072,105,3168,107.5C3264,110,3360,115,3456,100C3552,85,3648,50,3744,40C3840,30,3936,45,4032,55C4128,65,4224,70,4320,80C4416,90,4512,105,4608,110C4704,115,4800,110,4896,102.5C4992,95,5088,85,5184,87.5C5280,90,5376,105,5472,110C5568,115,5664,110,5760,90C5856,70,5952,35,6048,35C6144,35,6240,70,6336,80C6432,90,6528,75,6624,77.5C6720,80,6816,100,6864,110L6912,120L6912,150L6864,150C6816,150,6720,150,6624,150C6528,150,6432,150,6336,150C6240,150,6144,150,6048,150C5952,150,5856,150,5760,150C5664,150,5568,150,5472,150C5376,150,5280,150,5184,150C5088,150,4992,150,4896,150C4800,150,4704,150,4608,150C4512,150,4416,150,4320,150C4224,150,4128,150,4032,150C3936,150,3840,150,3744,150C3648,150,3552,150,3456,150C3360,150,3264,150,3168,150C3072,150,2976,150,2880,150C2784,150,2688,150,2592,150C2496,150,2400,150,2304,150C2208,150,2112,150,2016,150C1920,150,1824,150,1728,150C1632,150,1536,150,1440,150C1344,150,1248,150,1152,150C1056,150,960,150,864,150C768,150,672,150,576,150C480,150,384,150,288,150C192,150,96,150,48,150L0,150Z"></path></svg>