<svg viewBox="0 0 800 500" preserveAspectRatio="none" xmlns="http://www.w3.org/2000/svg" xmlns:xlink="http://www.w3.org/1999/xlink" width="100%" id="blobSvg">
  <g transform="translate(102, -17)">
    <path class="blob" d="M432.5,294Q433,338,411.5,381.5Q390,425,346.5,453.5Q303,482,250,482Q197,482,158,448.5Q119,415,98,374Q77,333,44,291.5Q11,250,36,204.5Q61,159,95.5,129Q130,99,170.5,89Q211,79,257.5,45Q304,11,345.5,44.5Q387,78,400.5,124.5Q414,171,423,210.5Q432,250,432.5,294Z" fill="#f1d9bd"></path>
  </g>
</svg>