<svg viewBox="0 0 800 500" preserveAspectRatio="none" xmlns="http://www.w3.org/2000/svg" xmlns:xlink="http://www.w3.org/1999/xlink" width="100%" id="blobSvg">
  <g transform="translate(394, 153)">
    <path class="blob" d="M252.5,304.5Q187,359,173,226Q159,93,238.5,171.5Q318,250,252.5,304.5Z" fill="#f9efe3"></path>
  </g>
  <g transform="translate(353, -38)">
    <path class="blob" d="M252.5,304.5Q187,359,173,226Q159,93,238.5,171.5Q318,250,252.5,304.5Z" fill="#f9efe3"></path>
  </g>
  <g transform="translate(-316, 234)">
    <path class="blob" d="M252.5,304.5Q187,359,173,226Q159,93,238.5,171.5Q318,250,252.5,304.5Z" fill="#f9efe3"></path>
  </g>
  <g transform="translate(-52, -181)">
    <path class="blob" d="M252.5,304.5Q187,359,173,226Q159,93,238.5,171.5Q318,250,252.5,304.5Z" fill="#f9efe3"></path>
  </g>
  <g transform="translate(-380, -150)">
    <path class="blob" d="M252.5,304.5Q187,359,173,226Q159,93,238.5,171.5Q318,250,252.5,304.5Z" fill="#f9efe3"></path>
  </g>
  <g transform="translate(-40, 237)">
    <path class="blob" d="M252.5,304.5Q187,359,173,226Q159,93,238.5,171.5Q318,250,252.5,304.5Z" fill="#f9efe3"></path>
  </g>
  <g transform="translate(-158, -1)">
    <path class="blob" d="M252.5,304.5Q187,359,173,226Q159,93,238.5,171.5Q318,250,252.5,304.5Z" fill="#f9efe3"></path>
  </g>
</svg>