<?xml version="1.0" encoding="UTF-8"?><svg id="a" xmlns="http://www.w3.org/2000/svg" viewBox="0 0 48.33 54.12"><defs><style>.b{fill:#e8f1f1;}.c{font-family:MyriadPro-Regular, Myriad Pro;font-size:6px;}</style></defs><circle class="b" cx="24.17" cy="26.83" r="24.17"/><text class="c" transform="translate(8.36 21.34) rotate(-47.89)"><tspan x="0" y="0">S</tspan></text><text class="c" transform="translate(10.28 19.2) rotate(-39.63)"><tspan x="0" y="0">e</tspan></text><text class="c" transform="translate(12.45 17.37) rotate(-31.17)"><tspan x="0" y="0">n</tspan></text><text class="c" transform="translate(15.22 15.73) rotate(-23.54)"><tspan x="0" y="0">s</tspan></text><text class="c" transform="translate(17.32 14.83) rotate(-18.66)"><tspan x="0" y="0"> </tspan></text><text class="c" transform="translate(18.4 14.4) rotate(-12.37)"><tspan x="0" y="0">d</tspan></text><text class="c" transform="translate(21.57 13.71) rotate(-3.7)"><tspan x="0" y="0">e</tspan></text><text class="c" transform="translate(24.49 13.56) rotate(2.14)"><tspan x="0" y="0"> </tspan></text><text class="c" transform="translate(25.67 13.6) rotate(5.7)"><tspan x="0" y="0">l</tspan></text><text class="c" transform="translate(27.06 13.74) rotate(9.39)"><tspan x="0" y="0">’</tspan></text><text class="c" transform="translate(27.77 13.8) rotate(13.85)"><tspan x="0" y="0">é</tspan></text><text class="c" transform="translate(30.55 14.49) rotate(21.44)"><tspan x="0" y="0">c</tspan></text><text class="c" transform="translate(32.92 15.39) rotate(29.41)"><tspan x="0" y="0">o</tspan></text><text class="c" transform="translate(35.68 16.93) rotate(38.34)"><tspan x="0" y="0">u</tspan></text><text class="c" transform="translate(38.14 18.92) rotate(45.47)"><tspan x="0" y="0">t</tspan></text><text class="c" transform="translate(39.46 20.2) rotate(52.16)"><tspan x="0" y="0">e</tspan></text></svg>