<svg id="Calque_1" data-name="Calque 1" xmlns="http://www.w3.org/2000/svg" viewBox="0 0 167.5 241.33"><defs><style>.cls-1{fill:#9e379f;}.cls-2{fill:#e86af0;}.cls-3{fill:#ff7bac;}.cls-4{fill:#7bb3ff;}</style></defs><rect class="cls-1" x="58.33" y="47.04" width="117" height="33" transform="translate(-3.18 120.83) rotate(-54.06)"/><ellipse class="cls-1" cx="151.17" cy="16.17" rx="16" ry="16.5" transform="translate(49.34 129.07) rotate(-54.06)"/><ellipse class="cls-1" cx="82.5" cy="110.9" rx="16" ry="16.5" transform="translate(-55.71 112.59) rotate(-54.06)"/><rect class="cls-2" x="-7.3" y="106.87" width="79.31" height="16" transform="translate(-79.64 73.64) rotate(-54.06)"/><ellipse class="cls-2" cx="55.63" cy="82.77" rx="10.85" ry="8" transform="translate(-44.03 79.23) rotate(-54.06)"/><ellipse class="cls-2" cx="9.08" cy="146.98" rx="10.85" ry="8" transform="translate(-115.24 68.06) rotate(-54.06)"/><rect class="cls-3" x="-2.47" y="179.68" width="91.98" height="24.05" transform="translate(-137.24 114.41) rotate(-54.06)"/><ellipse class="cls-3" cx="70.51" cy="154.48" rx="12.58" ry="12.03" transform="translate(-95.94 120.89) rotate(-54.06)"/><ellipse class="cls-3" cx="16.52" cy="228.94" rx="12.58" ry="12.03" transform="translate(-178.53 107.94) rotate(-54.06)"/><rect class="cls-4" x="87.55" y="127.32" width="72.17" height="11.88" transform="translate(-56.82 155.14) rotate(-54.06)"/><ellipse class="cls-4" cx="144.81" cy="104.05" rx="9.87" ry="5.94" transform="translate(-24.42 160.22) rotate(-54.06)"/><ellipse class="cls-4" cx="102.45" cy="162.48" rx="9.87" ry="5.94" transform="translate(-89.23 150.06) rotate(-54.06)"/></svg>