<?xml version="1.0" encoding="UTF-8"?><svg id="a" xmlns="http://www.w3.org/2000/svg" viewBox="0 0 1366 768"><defs><style>.b{fill:#e86af0;}.c{fill:#c6bdc2;}.d{fill:#7bb3ff;}.e{letter-spacing:0em;}.f{fill:#ff7bac;}.g{fill:#f9efe3;font-family:SegoePrint, Segoe Print;font-size:79px;}.h{fill:#9e379f;}</style></defs><rect class="c" width="1366" height="768"/><g><rect class="h" x="1310.87" y="37.8" width="22.46" height="6.33" transform="translate(512.9 1087.31) rotate(-54.06)"/><ellipse class="h" cx="1328.69" cy="31.88" rx="3.07" ry="3.17" transform="translate(522.98 1088.89) rotate(-54.06)"/><ellipse class="h" cx="1315.5" cy="50.06" rx="3.07" ry="3.17" transform="translate(502.82 1085.73) rotate(-54.06)"/></g><g><rect class="f" x="1297.27" y="50.29" width="15.22" height="3.07" transform="translate(497 1077.85) rotate(-54.06)"/><ellipse class="f" cx="1309.35" cy="45.66" rx="2.08" ry="1.54" transform="translate(503.84 1078.92) rotate(-54.06)"/><ellipse class="f" cx="1300.41" cy="57.99" rx="2.08" ry="1.54" transform="translate(490.17 1076.78) rotate(-54.06)"/></g><g><rect class="f" x="1297.2" y="63.26" width="17.66" height="4.62" transform="translate(486.34 1084.46) rotate(-54.06)"/><ellipse class="f" cx="1311.2" cy="58.43" rx="2.41" ry="2.31" transform="translate(494.27 1085.7) rotate(-54.06)"/><ellipse class="f" cx="1300.84" cy="72.72" rx="2.41" ry="2.31" transform="translate(478.42 1083.21) rotate(-54.06)"/></g><g><rect class="d" x="1316.47" y="53.21" width="13.85" height="2.28" transform="translate(502.61 1093.89) rotate(-54.06)"/><ellipse class="d" cx="1327.47" cy="48.75" rx="1.89" ry="1.14" transform="translate(508.83 1094.87) rotate(-54.06)"/><ellipse class="d" cx="1319.34" cy="59.96" rx="1.89" ry="1.14" transform="translate(496.39 1092.92) rotate(-54.06)"/></g><g><rect class="d" x="1278.87" y="44.8" width="22.46" height="6.33" transform="translate(494.02 1064.29) rotate(-54.06)"/><ellipse class="d" cx="1296.69" cy="38.88" rx="3.07" ry="3.17" transform="translate(504.1 1065.87) rotate(-54.06)"/><ellipse class="d" cx="1283.5" cy="57.06" rx="3.07" ry="3.17" transform="translate(483.93 1062.71) rotate(-54.06)"/></g><g><rect class="b" x="1312.27" y="27.29" width="15.22" height="3.07" transform="translate(521.82 1080.5) rotate(-54.06)"/><ellipse class="b" cx="1324.35" cy="22.66" rx="2.08" ry="1.54" transform="translate(528.65 1081.57) rotate(-54.06)"/><ellipse class="b" cx="1315.41" cy="34.99" rx="2.08" ry="1.54" transform="translate(514.99 1079.43) rotate(-54.06)"/></g><g><rect class="h" x="1278.2" y="64.26" width="17.66" height="4.62" transform="translate(477.69 1069.49) rotate(-54.06)"/><ellipse class="h" cx="1292.2" cy="59.43" rx="2.41" ry="2.31" transform="translate(485.61 1070.73) rotate(-54.06)"/><ellipse class="h" cx="1281.84" cy="73.72" rx="2.41" ry="2.31" transform="translate(469.76 1068.24) rotate(-54.06)"/></g><g><rect class="b" x="1297.47" y="41.21" width="13.85" height="2.28" transform="translate(504.47 1073.55) rotate(-54.06)"/><ellipse class="b" cx="1308.47" cy="36.75" rx="1.89" ry="1.14" transform="translate(510.69 1074.53) rotate(-54.06)"/><ellipse class="b" cx="1300.34" cy="47.96" rx="1.89" ry="1.14" transform="translate(498.25 1072.58) rotate(-54.06)"/></g><text class="g" transform="translate(291.14 361.04)"><tspan x="0" y="0">Site en const</tspan><tspan class="e" x="515.7" y="0">r</tspan><tspan x="556.7" y="0">uction</tspan></text><g><g><rect class="h" x="216.67" y="531.17" width="56.17" height="15.84" transform="translate(-335.36 420.82) rotate(-54.06)"/><ellipse class="h" cx="261.24" cy="516.35" rx="7.68" ry="7.92" transform="translate(-310.14 424.77) rotate(-54.06)"/><ellipse class="h" cx="228.27" cy="561.83" rx="7.68" ry="7.92" transform="translate(-360.58 416.86) rotate(-54.06)"/></g><g><rect class="f" x="182.47" y="594.85" width="44.16" height="11.55" transform="translate(-401.79 413.69) rotate(-54.06)"/><ellipse class="f" cx="217.51" cy="582.75" rx="6.04" ry="5.77" transform="translate(-381.96 416.8) rotate(-54.06)"/><ellipse class="f" cx="191.59" cy="618.5" rx="6.04" ry="5.77" transform="translate(-421.62 410.58) rotate(-54.06)"/></g><g><rect class="d" x="230.69" y="569.71" width="34.65" height="5.7" transform="translate(-361.12 437.29) rotate(-54.06)"/><ellipse class="d" cx="258.19" cy="558.54" rx="4.74" ry="2.85" transform="translate(-345.56 439.73) rotate(-54.06)"/><ellipse class="d" cx="237.85" cy="586.59" rx="4.74" ry="2.85" transform="translate(-376.67 434.85) rotate(-54.06)"/></g><g><rect class="b" x="220.17" y="504.87" width="38.08" height="7.68" transform="translate(-313.05 403.78) rotate(-54.06)"/><ellipse class="b" cx="250.39" cy="493.3" rx="5.21" ry="3.84" transform="translate(-295.96 406.46) rotate(-54.06)"/><ellipse class="b" cx="228.04" cy="524.12" rx="5.21" ry="3.84" transform="translate(-330.15 401.1) rotate(-54.06)"/></g><g><rect class="f" x="182.65" y="558.4" width="38.08" height="7.68" transform="translate(-371.89 395.52) rotate(-54.06)"/><ellipse class="f" cx="212.87" cy="546.82" rx="5.21" ry="3.84" transform="translate(-354.79 398.2) rotate(-54.06)"/><ellipse class="f" cx="190.52" cy="577.65" rx="5.21" ry="3.84" transform="translate(-388.98 392.84) rotate(-54.06)"/></g><g><rect class="d" x="136.63" y="544.68" width="56.17" height="15.84" transform="translate(-379.36 361.6) rotate(-54.06)"/><ellipse class="d" cx="181.2" cy="529.86" rx="7.68" ry="7.92" transform="translate(-354.14 365.55) rotate(-54.06)"/><ellipse class="d" cx="148.23" cy="575.34" rx="7.68" ry="7.92" transform="translate(-404.58 357.64) rotate(-54.06)"/></g><g><rect class="h" x="134.95" y="593.35" width="44.16" height="11.55" transform="translate(-420.21 374.59) rotate(-54.06)"/><ellipse class="h" cx="169.99" cy="581.25" rx="6.04" ry="5.77" transform="translate(-400.38 377.7) rotate(-54.06)"/><ellipse class="h" cx="144.07" cy="617.01" rx="6.04" ry="5.77" transform="translate(-440.03 371.48) rotate(-54.06)"/></g><g><rect class="b" x="183.17" y="535.7" width="34.65" height="5.7" transform="translate(-353.21 384.76) rotate(-54.06)"/><ellipse class="b" cx="210.66" cy="524.52" rx="4.74" ry="2.85" transform="translate(-337.65 387.2) rotate(-54.06)"/><ellipse class="b" cx="190.32" cy="552.58" rx="4.74" ry="2.85" transform="translate(-368.76 382.32) rotate(-54.06)"/></g></g></svg>